<svg width="136" height="136" viewBox="0 0 136 136" fill="none" xmlns="http://www.w3.org/2000/svg">
<mask id="mask0_6179_20524" style="mask-type:alpha" maskUnits="userSpaceOnUse" x="0" y="0" width="136" height="136">
<rect width="136" height="136" fill="#D9D9D9"/>
</mask>
<g mask="url(#mask0_6179_20524)">
<path d="M68.0111 68.0111C61.7777 68.0111 56.4416 65.7916 52.0027 61.3527C47.5639 56.9139 45.3444 51.5777 45.3444 45.3444C45.3444 39.1111 47.5639 33.775 52.0027 29.3361C56.4416 24.8972 61.7777 22.6777 68.0111 22.6777C74.2444 22.6777 79.5805 24.8972 84.0194 29.3361C88.4583 33.775 90.6777 39.1111 90.6777 45.3444C90.6777 51.5777 88.4583 56.9139 84.0194 61.3527C79.5805 65.7916 74.2444 68.0111 68.0111 68.0111ZM22.6777 113.344V97.4778C22.6777 94.2666 23.5041 91.3152 25.1569 88.6236C26.8097 85.9319 29.0055 83.8778 31.7444 82.4611C37.6 79.5333 43.55 77.3375 49.5944 75.8736C55.6389 74.4097 61.7777 73.6777 68.0111 73.6777C74.2444 73.6777 80.3833 74.4097 86.4277 75.8736C92.4722 77.3375 98.4222 79.5333 104.278 82.4611C107.017 83.8778 109.212 85.9319 110.865 88.6236C112.518 91.3152 113.344 94.2666 113.344 97.4778V113.344H22.6777Z" fill="#ECEEFE"/>
</g>
</svg>
