<svg width="36" height="24" viewBox="0 0 36 24" fill="none" xmlns="http://www.w3.org/2000/svg">
<path d="M11.4 21.5522L8.448 18.5882L24.348 2.7002L27.3 5.6522L11.4 21.5522Z" fill="url(#paint0_linear_237_499)"/>
<path d="M12.324 3.36L3.68397 12L0.719971 9.04799L9.35997 0.395996L12.324 3.36ZM9.35997 23.604L12.312 20.652L3.67197 12.012L0.719971 14.952L9.35997 23.604Z" fill="url(#paint1_linear_237_499)"/>
<path d="M35.28 9.0482L32.328 12.0002L23.688 3.3602L26.64 0.408203L35.28 9.0482ZM35.28 14.9522L32.328 12.0002L23.688 20.6402L26.64 23.5922L35.28 14.9522Z" fill="url(#paint2_linear_237_499)"/>
<defs>
<linearGradient id="paint0_linear_237_499" x1="8.44904" y1="12.1221" x2="27.3014" y2="12.1221" gradientUnits="userSpaceOnUse">
<stop stop-color="#1381FF"/>
<stop offset="0.0780981" stop-color="#1376FF"/>
<stop offset="0.289" stop-color="#125CFF"/>
<stop offset="0.5081" stop-color="#124AFF"/>
<stop offset="0.7388" stop-color="#123FFF"/>
<stop offset="1" stop-color="#123CFF"/>
</linearGradient>
<linearGradient id="paint1_linear_237_499" x1="0.719455" y1="12" x2="12.3215" y2="12" gradientUnits="userSpaceOnUse">
<stop stop-color="#13E4E8"/>
<stop offset="1" stop-color="#1381FF"/>
</linearGradient>
<linearGradient id="paint2_linear_237_499" x1="23.6784" y1="12.0002" x2="35.2805" y2="12.0002" gradientUnits="userSpaceOnUse">
<stop stop-color="#1381FF"/>
<stop offset="0.1287" stop-color="#4271FF"/>
<stop offset="0.2599" stop-color="#6963FF"/>
<stop offset="0.3956" stop-color="#8A58FF"/>
<stop offset="0.5345" stop-color="#A44FFF"/>
<stop offset="0.678" stop-color="#B649FF"/>
<stop offset="0.8291" stop-color="#C045FF"/>
<stop offset="1" stop-color="#C444FF"/>
</linearGradient>
</defs>
</svg>
