<svg width="25" height="24" viewBox="0 0 25 24" fill="none" xmlns="http://www.w3.org/2000/svg">
<mask id="mask0_31679_7079" style="mask-type:alpha" maskUnits="userSpaceOnUse" x="0" y="0" width="25" height="24">
<rect x="0.333252" width="24" height="24" fill="#D9D9D9"/>
</mask>
<g mask="url(#mask0_31679_7079)">
<path d="M12.3333 20C11.7833 20 11.3124 19.8042 10.9208 19.4125C10.5291 19.0208 10.3333 18.55 10.3333 18C10.3333 17.45 10.5291 16.9792 10.9208 16.5875C11.3124 16.1958 11.7833 16 12.3333 16C12.8833 16 13.3541 16.1958 13.7458 16.5875C14.1374 16.9792 14.3333 17.45 14.3333 18C14.3333 18.55 14.1374 19.0208 13.7458 19.4125C13.3541 19.8042 12.8833 20 12.3333 20ZM12.3333 14C11.7833 14 11.3124 13.8042 10.9208 13.4125C10.5291 13.0208 10.3333 12.55 10.3333 12C10.3333 11.45 10.5291 10.9792 10.9208 10.5875C11.3124 10.1958 11.7833 10 12.3333 10C12.8833 10 13.3541 10.1958 13.7458 10.5875C14.1374 10.9792 14.3333 11.45 14.3333 12C14.3333 12.55 14.1374 13.0208 13.7458 13.4125C13.3541 13.8042 12.8833 14 12.3333 14ZM12.3333 8C11.7833 8 11.3124 7.80417 10.9208 7.4125C10.5291 7.02083 10.3333 6.55 10.3333 6C10.3333 5.45 10.5291 4.97917 10.9208 4.5875C11.3124 4.19583 11.7833 4 12.3333 4C12.8833 4 13.3541 4.19583 13.7458 4.5875C14.1374 4.97917 14.3333 5.45 14.3333 6C14.3333 6.55 14.1374 7.02083 13.7458 7.4125C13.3541 7.80417 12.8833 8 12.3333 8Z" fill="#1C1B1F"/>
</g>
</svg>
